# xmcd
# 
# Track frame offsets:
#     150
#     16727
#     25205
#     36145
#     48092
#     58885
#     67797
#     79755
#     100050
#     110517
#     126172
#     139042
#     153480
#     166462
#     186784
# 
# Disc length: 2651
# 
# Revision: 1
# Processed by: cddbd v1.5.2PL0 Copyright (c) Steve Scherf et al.
# Submitted via: fre:ac v1.1beta1pre5
# 
DISCID=bc0a590f
DTITLE=Various Artist - Instrumental Moments
DYEAR=2000
DGENRE=Instrumental
TTITLE0=Herb Alpert - Fandango
TTITLE1=The Ventures - Hawaii Five-0
TTITLE2=Santo and Johnny - Sonámbulo
TTITLE3=Bert Kaempfert - Trompeta Mágica
TTITLE4=Pérez Prado - Patricia
TTITLE5=Duane Eddy - La Balada del Paladín
TTITLE6=Henry Mancini - Tema de la Pantera Rosa
TTITLE7=Raúl Diblasio - Melissa
TTITLE8=Al Caiola - Bonanza
TTITLE9=Fausto Papetti - Amantes
TTITLE10=Gianni Marchetti - El Encuentro
TTITLE11=Pedro Iturralde - La Gata bajo la Lluvia
TTITLE12=Los Indios Tabajaras - Luces en el Puerto
TTITLE13=Yanni - Reflections of Passion
TTITLE14=Henry Mancini - Moon River
EXTD=
EXTT0=
EXTT1=
EXTT2=
EXTT3=
EXTT4=
EXTT5=
EXTT6=
EXTT7=
EXTT8=
EXTT9=
EXTT10=
EXTT11=
EXTT12=
EXTT13=
EXTT14=
PLAYORDER=
